<svg width="190" height="196" viewBox="0 0 190 196" fill="none" xmlns="http://www.w3.org/2000/svg">
<g filter="url(#filter0_d_1_41)">
<path d="M95 0L177.272 47.5V142.5L95 190L12.7276 142.5V47.5L95 0Z" fill="#FBFEC9"/>
</g>
<g filter="url(#filter1_i_1_41)">
<path fill-rule="evenodd" clip-rule="evenodd" d="M95.4674 38C85.9674 55 48.4674 55 48.4674 55C48.4674 55 39.9673 132.5 95.4674 151C150.967 132.5 142.467 55 142.467 55C142.467 55 104.967 55 95.4674 38ZM95.4673 49C103.073 62.6094 133.093 62.6094 133.093 62.6094C133.093 62.6094 139.898 124.652 95.4673 139.462V49Z" fill="#BEF7FF"/>
</g>
<defs>
<filter id="filter0_d_1_41" x="12.7276" y="0" width="170.545" height="196" filterUnits="userSpaceOnUse" color-interpolation-filters="sRGB">
<feFlood flood-opacity="0" result="BackgroundImageFix"/>
<feColorMatrix in="SourceAlpha" type="matrix" values="0 0 0 0 0 0 0 0 0 0 0 0 0 0 0 0 0 0 127 0" result="hardAlpha"/>
<feOffset dx="3" dy="3"/>
<feGaussianBlur stdDeviation="1.5"/>
<feComposite in2="hardAlpha" operator="out"/>
<feColorMatrix type="matrix" values="0 0 0 0 0 0 0 0 0 0 0 0 0 0 0 0 0 0 0.25 0"/>
<feBlend mode="normal" in2="BackgroundImageFix" result="effect1_dropShadow_1_41"/>
<feBlend mode="normal" in="SourceGraphic" in2="effect1_dropShadow_1_41" result="shape"/>
</filter>
<filter id="filter1_i_1_41" x="48" y="38" width="97.9347" height="116" filterUnits="userSpaceOnUse" color-interpolation-filters="sRGB">
<feFlood flood-opacity="0" result="BackgroundImageFix"/>
<feBlend mode="normal" in="SourceGraphic" in2="BackgroundImageFix" result="shape"/>
<feColorMatrix in="SourceAlpha" type="matrix" values="0 0 0 0 0 0 0 0 0 0 0 0 0 0 0 0 0 0 127 0" result="hardAlpha"/>
<feOffset dx="3" dy="3"/>
<feGaussianBlur stdDeviation="1.5"/>
<feComposite in2="hardAlpha" operator="arithmetic" k2="-1" k3="1"/>
<feColorMatrix type="matrix" values="0 0 0 0 0 0 0 0 0 0 0 0 0 0 0 0 0 0 0.25 0"/>
<feBlend mode="normal" in2="shape" result="effect1_innerShadow_1_41"/>
</filter>
</defs>
</svg>
