<svg width="190" height="194" viewBox="0 0 190 194" fill="none" xmlns="http://www.w3.org/2000/svg">
<g filter="url(#filter0_d_1_30)">
<path d="M95 0L177.272 47.5V142.5L95 190L12.7276 142.5V47.5L95 0Z" fill="#FBFEC9"/>
</g>
<g filter="url(#filter1_i_1_30)">
<path fill-rule="evenodd" clip-rule="evenodd" d="M87.892 144.089C87.0277 145.885 86.2216 147.559 84.9665 148.312C80.4942 150.996 65.5716 145.154 64.1992 139.785C63.8368 138.367 64.4417 136.609 65.0901 134.725C66.164 131.605 67.3575 128.138 64.4769 125.287C61.5962 122.437 58.1414 123.666 55.033 124.773C53.1558 125.441 51.405 126.064 49.9832 125.717C44.5158 124.38 38.9551 109.96 41.7441 105.313C42.4972 104.058 44.1717 103.252 45.9671 102.387C48.9401 100.956 52.2444 99.3659 52.2447 95.3132C52.2449 91.2606 48.9408 89.6697 45.9679 88.2383C44.1727 87.3739 42.4982 86.5677 41.7452 85.3126C39.0621 80.8401 44.9042 65.9178 50.2741 64.5458C51.6922 64.1835 53.4494 64.7884 55.3334 65.437C58.4532 66.511 61.9207 67.7047 64.7715 64.8243C67.6222 61.9438 66.3927 58.4889 65.2865 55.3804C64.6184 53.5032 63.9953 51.7523 64.3429 50.3306C65.5507 45.3909 79.7279 39.0197 84.1034 41.651C85.3577 42.4053 86.1622 44.0806 87.0247 45.8768C88.453 48.8511 90.0405 52.1569 94.0931 52.1609C98.1457 52.1649 99.7397 48.8623 101.174 45.8907C102.04 44.0963 102.848 42.4226 104.104 41.6708C108.578 38.9918 123.495 44.8478 124.862 50.219C125.223 51.6374 124.617 53.394 123.966 55.2775C122.89 58.3963 121.693 61.8626 124.57 64.7161C127.448 67.5695 130.904 66.3432 134.014 65.2398C135.892 64.5735 137.643 63.952 139.064 64.301C144.531 65.6428 150.077 80.0681 147.283 84.713C146.529 85.9673 144.854 86.7717 143.057 87.6341C140.083 89.0622 136.777 90.6494 136.773 94.7021C136.769 98.7547 140.071 100.349 143.043 101.783C144.837 102.649 146.511 103.457 147.262 104.713C149.941 109.188 144.084 124.105 138.713 125.471C137.295 125.832 135.538 125.226 133.655 124.575C130.536 123.498 127.07 122.301 124.216 125.179C121.362 128.056 122.589 131.512 123.692 134.622C124.358 136.5 124.979 138.251 124.63 139.673C123.424 144.585 109.382 150.962 104.967 148.312C103.712 147.559 102.905 145.885 102.041 144.089C100.61 141.116 99.0192 137.812 94.9665 137.812C90.9139 137.812 89.3232 141.116 87.892 144.089ZM95 119C108.255 119 119 108.255 119 95C119 81.7452 108.255 71 95 71C81.7452 71 71 81.7452 71 95C71 108.255 81.7452 119 95 119Z" fill="#BEF7FF"/>
</g>
<defs>
<filter id="filter0_d_1_30" x="12.7276" y="0" width="168.545" height="194" filterUnits="userSpaceOnUse" color-interpolation-filters="sRGB">
<feFlood flood-opacity="0" result="BackgroundImageFix"/>
<feColorMatrix in="SourceAlpha" type="matrix" values="0 0 0 0 0 0 0 0 0 0 0 0 0 0 0 0 0 0 127 0" result="hardAlpha"/>
<feOffset dx="2" dy="2"/>
<feGaussianBlur stdDeviation="1"/>
<feComposite in2="hardAlpha" operator="out"/>
<feColorMatrix type="matrix" values="0 0 0 0 0 0 0 0 0 0 0 0 0 0 0 0 0 0 0.25 0"/>
<feBlend mode="normal" in2="BackgroundImageFix" result="effect1_dropShadow_1_30"/>
<feBlend mode="normal" in="SourceGraphic" in2="effect1_dropShadow_1_30" result="shape"/>
</filter>
<filter id="filter1_i_1_30" x="41" y="41" width="109.031" height="109.986" filterUnits="userSpaceOnUse" color-interpolation-filters="sRGB">
<feFlood flood-opacity="0" result="BackgroundImageFix"/>
<feBlend mode="normal" in="SourceGraphic" in2="BackgroundImageFix" result="shape"/>
<feColorMatrix in="SourceAlpha" type="matrix" values="0 0 0 0 0 0 0 0 0 0 0 0 0 0 0 0 0 0 127 0" result="hardAlpha"/>
<feOffset dx="2" dy="2"/>
<feGaussianBlur stdDeviation="1"/>
<feComposite in2="hardAlpha" operator="arithmetic" k2="-1" k3="1"/>
<feColorMatrix type="matrix" values="0 0 0 0 0 0 0 0 0 0 0 0 0 0 0 0 0 0 0.25 0"/>
<feBlend mode="normal" in2="shape" result="effect1_innerShadow_1_30"/>
</filter>
</defs>
</svg>
