<svg width="190" height="196" viewBox="0 0 190 196" fill="none" xmlns="http://www.w3.org/2000/svg">
<g filter="url(#filter0_d_1_62)">
<path d="M95 0L177.272 47.5V142.5L95 190L12.7276 142.5V47.5L95 0Z" fill="#FBFEC9"/>
</g>
<g filter="url(#filter1_i_1_62)">
<path fill-rule="evenodd" clip-rule="evenodd" d="M107.149 41.3705C97.1688 39.089 86.7475 39.6648 77.0791 43.0321C67.4107 46.3994 58.8863 52.4219 52.4823 60.4097C46.0784 68.3975 42.0539 78.0277 40.8698 88.197L49.8094 89.2378C50.7979 80.7479 54.1578 72.708 59.5043 66.0393C64.8507 59.3706 71.9674 54.3426 80.0392 51.5314C88.111 48.7202 96.8114 48.2394 105.144 50.1442C113.476 52.049 121.103 56.2622 127.152 62.3013C133.201 68.3404 137.426 75.9611 139.344 84.2904C141.262 92.6198 140.795 101.321 137.996 109.397C135.198 117.473 130.181 124.598 123.521 129.955C116.86 135.312 108.826 138.684 100.338 139.686L101.393 148.624C111.56 147.424 121.184 143.385 129.161 136.968C137.139 130.551 143.148 122.018 146.5 112.344C149.852 102.67 150.412 92.2479 148.114 82.271C145.817 72.294 140.756 63.1659 133.511 55.9323C126.266 48.6987 117.13 43.652 107.149 41.3705ZM99.5041 67C99.5041 64.5147 97.4894 62.5 95.0041 62.5C92.5188 62.5 90.5041 64.5147 90.5041 67V94.5V97.0563L92.6998 98.3653L118.7 113.865C120.835 115.138 123.597 114.439 124.869 112.304C126.142 110.17 125.443 107.407 123.308 106.135L99.5041 91.9437V67ZM54.5041 94.5C51.375 94.5 48.6008 95.0548 46.2885 96.3689C43.897 97.728 42.3627 99.6933 41.4353 101.841C40.5505 103.89 40.2332 106.063 40.1008 107.969C39.9916 109.543 39.9972 111.201 40.0021 112.653C40.0031 112.944 40.0041 113.227 40.0041 113.5H49.0041C49.0041 113.162 49.0032 112.834 49.0023 112.516C48.9983 111.071 48.9947 109.81 49.0792 108.593C49.1812 107.124 49.3952 106.11 49.6979 105.409C49.958 104.807 50.2674 104.46 50.7353 104.194C51.2824 103.883 52.3832 103.5 54.5041 103.5C56.6888 103.5 57.7215 103.874 58.1935 104.155C58.5468 104.366 58.8869 104.692 59.2056 105.581C59.5707 106.599 59.8124 108.111 59.9235 110.398C59.9773 111.507 59.9978 112.698 60.0047 114H59.0041C53.7574 114 49.5041 118.253 49.5041 123.5V140.5C49.5041 145.747 53.7574 150 59.0041 150H86.0041C91.2508 150 95.5041 145.747 95.5041 140.5V123.5C95.5041 118.253 91.2508 114 86.0041 114H69.0048C68.9972 112.583 68.9742 111.225 68.9129 109.962C68.7895 107.42 68.5 104.838 67.6776 102.544C66.8088 100.12 65.3051 97.9156 62.7991 96.4229C60.4117 95.0009 57.5694 94.5 54.5041 94.5Z" fill="#BEF7FF"/>
</g>
<defs>
<filter id="filter0_d_1_62" x="12.7276" y="0" width="170.545" height="196" filterUnits="userSpaceOnUse" color-interpolation-filters="sRGB">
<feFlood flood-opacity="0" result="BackgroundImageFix"/>
<feColorMatrix in="SourceAlpha" type="matrix" values="0 0 0 0 0 0 0 0 0 0 0 0 0 0 0 0 0 0 127 0" result="hardAlpha"/>
<feOffset dx="3" dy="3"/>
<feGaussianBlur stdDeviation="1.5"/>
<feComposite in2="hardAlpha" operator="out"/>
<feColorMatrix type="matrix" values="0 0 0 0 0 0 0 0 0 0 0 0 0 0 0 0 0 0 0.25 0"/>
<feBlend mode="normal" in2="BackgroundImageFix" result="effect1_dropShadow_1_62"/>
<feBlend mode="normal" in="SourceGraphic" in2="effect1_dropShadow_1_62" result="shape"/>
</filter>
<filter id="filter1_i_1_62" x="40" y="40" width="111.504" height="112" filterUnits="userSpaceOnUse" color-interpolation-filters="sRGB">
<feFlood flood-opacity="0" result="BackgroundImageFix"/>
<feBlend mode="normal" in="SourceGraphic" in2="BackgroundImageFix" result="shape"/>
<feColorMatrix in="SourceAlpha" type="matrix" values="0 0 0 0 0 0 0 0 0 0 0 0 0 0 0 0 0 0 127 0" result="hardAlpha"/>
<feOffset dx="2" dy="2"/>
<feGaussianBlur stdDeviation="1"/>
<feComposite in2="hardAlpha" operator="arithmetic" k2="-1" k3="1"/>
<feColorMatrix type="matrix" values="0 0 0 0 0 0 0 0 0 0 0 0 0 0 0 0 0 0 0.25 0"/>
<feBlend mode="normal" in2="shape" result="effect1_innerShadow_1_62"/>
</filter>
</defs>
</svg>
